<svg xmlns="http://www.w3.org/2000/svg" viewBox="0 0 223.06 208.93"><defs><style>.cls-1{fill:#409694;}</style></defs><title>Employee</title><g id="Layer_2" data-name="Layer 2"><g id="Layer_6" data-name="Layer 6"><path class="cls-1" d="M219.79,176.74a3.26,3.26,0,0,0-3.26,3.27v21.83a.55.55,0,0,1-.55.55H203.56V154.65a3.27,3.27,0,1,0-6.53,0v47.74H173l6.5-7.14a5.25,5.25,0,0,0,1.26-4.2s0-.06,0-.09l-7.3-43.13,1.34-2,.35.24a5.11,5.11,0,0,0,7.54-1.88h0l7.43-14.89,17,6.57a16.28,16.28,0,0,1,9.43,14.75v14.16a3.27,3.27,0,1,0,6.53,0V150.6c0-15.08-12.93-20.57-13.48-20.8l-.06,0-28.9-11.19v-6a23.87,23.87,0,0,0,8.63-14.82,11.29,11.29,0,0,0,10-11.2,11.23,11.23,0,0,0-2.54-7.12V70.69a31.26,31.26,0,0,0-51.6-23.78,11.23,11.23,0,0,0-2.53-6.8V31.29a31.3,31.3,0,0,0-62.59,0v9.05a10.68,10.68,0,0,0-2.52,6.54,31.1,31.1,0,0,0-12.33-6.45,3.27,3.27,0,1,0-1.66,6.32A24.76,24.76,0,0,1,81.89,70.69v4.88l-.61-.11a3.78,3.78,0,0,0-.78-2.21c-.84-1.2-2.34-2.7-7.17-7.89a5.17,5.17,0,0,0-6.62-.81,46.64,46.64,0,0,1-27.66,7.62c-3-.18-4.94,1.15-5.75,3.34l-.92.19v-5A24.92,24.92,0,0,1,50,47a3.27,3.27,0,0,0-1.88-6.26,31.66,31.66,0,0,0-16,11.13,31.07,31.07,0,0,0-6.3,18.84v9a10.69,10.69,0,0,0-2.53,6.89,11.29,11.29,0,0,0,10,11.2A24.1,24.1,0,0,0,42.41,113v5.57L13.55,129.78l-.07,0C12.93,130,0,135.52,0,150.6v51.24a7.1,7.1,0,0,0,7.09,7.09H107.71a7,7,0,0,0,3.82-1.13,7,7,0,0,0,3.82,1.13H216a7.1,7.1,0,0,0,7.08-7.09V180A3.26,3.26,0,0,0,219.79,176.74ZM33,91.07a4.73,4.73,0,0,1-3.14-4.45A4.84,4.84,0,0,1,33,82.37Zm151,35.84-6.42,12.86s-7.12-5.07-7.22-5.14l8-9.9Zm-18.37,3.17-8.45-10.43v-3.13a26.61,26.61,0,0,0,8.49,1.38h0a24.08,24.08,0,0,0,8.39-1.52v3.29ZM169.49,142l-1.2,1.81H163l-1.2-1.81,3.83-2.72Zm-58-51.33-8.45-10.43V77.12a26.22,26.22,0,0,0,8.49,1.39h0A24.17,24.17,0,0,0,120,77v3.29Zm3.84,11.94-1.2,1.81h-5.27l-1.2-1.81,3.83-2.73ZM85.79,58.11a11.06,11.06,0,0,0,1.64.32,24.13,24.13,0,0,0,9.11,15.2V79.2l-6.67,2.58a11.53,11.53,0,0,0-1.44-2.28V70.69A31.29,31.29,0,0,0,85.79,58.11Zm43.1-3.46a17.62,17.62,0,0,1-35.24,0V39.35a53.56,53.56,0,0,0,29.8-8.1c2.94,3.16,4.7,5,5.44,5.85Zm6.23,3.77a11.16,11.16,0,0,0,1.63-.31,31.21,31.21,0,0,0-2.64,12.58v9a10.92,10.92,0,0,0-1.3,1.91l-6.32-2.45v-6A23.84,23.84,0,0,0,135.12,58.42ZM98.77,85.35l8,9.9-5.47,3.88h0l-1.74,1.23L93.16,87.52ZM119,91.79l5.23-6.45,5.61,2.18-6.41,12.85-1.74-1.23h0l-5.48-3.89Zm1.65,14.62.35.25a5.12,5.12,0,0,0,7.54-1.89h0l5.51-11a11.47,11.47,0,0,0,7.46,4.11A23.73,23.73,0,0,0,150.67,113v5.57l-27.78,10.77-3.54-20.93Zm32.21,18.33,8,9.9-7.21,5.13-6.42-12.86ZM183,94.05a17.62,17.62,0,0,1-35.24,0V78.74a53.54,53.54,0,0,0,29.8-8.1c2.95,3.16,4.7,5,5.44,5.85Zm9.67-7.43a4.71,4.71,0,0,1-3.14,4.45V82.18A4.71,4.71,0,0,1,192.69,86.62ZM140.64,70.69a24.76,24.76,0,1,1,49.51,0v4.88l-.61-.11a3.75,3.75,0,0,0-.78-2.21c-.86-1.23-2.34-2.7-7.17-7.89a5.18,5.18,0,0,0-6.62-.81,46.83,46.83,0,0,1-27.9,7.61,5.13,5.13,0,0,0-5.5,3.35l-.93.19v-5Zm.6,11.68v8.69a4.7,4.7,0,0,1-3.14-4.44A4.84,4.84,0,0,1,141.24,82.37Zm-2.68-35.14a4.71,4.71,0,0,1-1.63,3.57,5.2,5.2,0,0,1-1.51.88V42.79A4.7,4.7,0,0,1,138.56,47.23ZM111.27,6.54A24.77,24.77,0,0,1,136,31.29v4.89l-.61-.11a3.94,3.94,0,0,0-.92-2.41c-.88-1.19-2.49-2.81-7-7.69a5.16,5.16,0,0,0-6.62-.81,46.64,46.64,0,0,1-28.17,7.59,5.2,5.2,0,0,0-5.24,3.37c-.07,0-.88.17-.92.19v-5h0A24.78,24.78,0,0,1,111.27,6.54ZM87.11,43v8.71A4.73,4.73,0,0,1,84,47.23,4.84,4.84,0,0,1,87.11,43ZM81.29,82.18a4.72,4.72,0,0,1,0,8.89ZM81,97.83a11.45,11.45,0,0,0,7.76-4.51l5.72,11.45h0a5.11,5.11,0,0,0,7.54,1.89l.35-.25,1.34,2-3.54,20.92-27.8-10.76v-6h0A23.87,23.87,0,0,0,81,97.83Zm-23.6,32.25-8.45-10.43v-3.13a26.48,26.48,0,0,0,8.49,1.38h0a24.21,24.21,0,0,0,8.39-1.52v3.29ZM61.23,142,60,143.83H54.76L53.56,142l3.83-2.72Zm8.9-17.29,5.62,2.18-6.41,12.86-1.74-1.24h0l-5.48-3.9ZM39.52,94.05V78.74a53.5,53.5,0,0,0,29.8-8.1c2.91,3.13,4.69,5,5.43,5.85V94.05a17.62,17.62,0,0,1-35.23,0Zm5.12,30.69,8,9.9-5.47,3.89h0l-1.74,1.24L39,126.91ZM26,202.39V154.65a3.27,3.27,0,1,0-6.54,0v47.74H7.09a.55.55,0,0,1-.55-.55V150.6A16.28,16.28,0,0,1,16,135.85l17-6.57,7.43,14.89h0a5.09,5.09,0,0,0,7.53,1.88l.35-.24,1.35,2L42.27,191s0,.06,0,.09a5.25,5.25,0,0,0,1.27,4.2L50,202.39Zm22.79-11,6.94-41H59l6.94,41-8.57,9.42Zm59.43,10.47a.55.55,0,0,1-.55.55H95.3V154.65a3.27,3.27,0,1,0-6.54,0v47.74h-24l6.49-7.14a5.22,5.22,0,0,0,1.27-4.2s0-.06,0-.09l-7.3-43.13,1.35-2,.35.24a5,5,0,0,0,3,.95,5.12,5.12,0,0,0,4.58-2.83h0l7.42-14.89,17,6.57a16.22,16.22,0,0,1,9.42,14.75v51.24Zm3.27-63.12a23,23,0,0,0-5.33-5.92L109.9,111h3.25l3.69,21.84A23.39,23.39,0,0,0,111.53,138.72Zm22.77,63.67h0V154.65a3.27,3.27,0,0,0-6.54,0v47.74H115.35a.55.55,0,0,1-.55-.55V150.6a15.62,15.62,0,0,1,3.81-10.47,17.71,17.71,0,0,1,5.6-4.28l17-6.57,7.43,14.89h0a5.1,5.1,0,0,0,7.54,1.88l.35-.24,1.34,2L150.53,191s0,.06,0,.09a5.25,5.25,0,0,0,1.26,4.2l6.49,7.14Zm22.79-11,6.94-41h3.25l6.94,41-8.57,9.42Z"/></g></g></svg>