<svg xmlns="http://www.w3.org/2000/svg" viewBox="0 0 56.94 56.66"><defs><style>.cls-1{fill:#51c3c4;}</style></defs><title>Logo</title><g id="Layer_2" data-name="Layer 2"><g id="TopNav"><g id="Group_105" data-name="Group 105"><g id="Group_104" data-name="Group 104"><path id="Path_81" data-name="Path 81" class="cls-1" d="M33.91,12.63l-1.86.09a3.43,3.43,0,0,0-3.31,3.39v6.61A3.31,3.31,0,0,0,32.05,26h6a2.63,2.63,0,0,0,2.78-2.48,2.49,2.49,0,0,0-.07-.77,45.33,45.33,0,0,0-2.23-7.37A4.94,4.94,0,0,0,33.91,12.63Z"/><path id="Path_82" data-name="Path 82" class="cls-1" d="M28.74,4.08v2.1A3.18,3.18,0,0,0,31.89,9.4h.29c1.83-.08,2.57-1.47,1.5-3a39.93,39.93,0,0,0-2.62-3.3C29.84,1.78,28.74,2.27,28.74,4.08Z"/><path id="Path_83" data-name="Path 83" class="cls-1" d="M25.44,22.72V16.11a3.44,3.44,0,0,0-3.31-3.39l-.95-.05a5,5,0,0,0-4.62,2.81,45,45,0,0,0-2.18,7.29,2.65,2.65,0,0,0,2,3.19,2.72,2.72,0,0,0,.75.06h5a3.31,3.31,0,0,0,3.31-3.3Z"/><path id="Path_84" data-name="Path 84" class="cls-1" d="M34.36,2a44,44,0,0,1,3,4.05,5.44,5.44,0,0,0,5,2.37c1-.16,1.84-.32,2.66-.5,1.79-.38,2.14-1.83.68-2.92A28.74,28.74,0,0,0,35.4.11C33.62-.32,33.19.56,34.36,2Z"/><path id="Path_85" data-name="Path 85" class="cls-1" d="M6.9,29.33H3a2.89,2.89,0,0,0-3,2.76,2.33,2.33,0,0,0,0,.53A28.61,28.61,0,0,0,3.24,42a4.23,4.23,0,0,0,4.58,1.9,3.67,3.67,0,0,0,2.5-4,63.19,63.19,0,0,1-.27-7.28,3.15,3.15,0,0,0-3-3.29Z"/><path id="Path_86" data-name="Path 86" class="cls-1" d="M17.86,6.12A47,47,0,0,1,20.63,2.3c1.16-1.41.73-2.21-1-1.64a28.91,28.91,0,0,0-8.81,4.66c-1.44,1.12-1.07,2.59.73,2.94l1.35.24A5.42,5.42,0,0,0,17.86,6.12Z"/><path id="Path_87" data-name="Path 87" class="cls-1" d="M11.14,22.77a49.41,49.41,0,0,1,2.18-7.62,2.52,2.52,0,0,0-1.21-3.34,2.45,2.45,0,0,0-.79-.22c-.81-.15-1.56-.31-2.26-.48A5,5,0,0,0,4,12.92,28.73,28.73,0,0,0,.16,22.74,2.8,2.8,0,0,0,2.42,26a3.33,3.33,0,0,0,.63,0H7.27A4.13,4.13,0,0,0,11.14,22.77Z"/><path id="Path_88" data-name="Path 88" class="cls-1" d="M22.52,9.42a3,3,0,0,0,2.92-3.11V5.08c0-1.82-1.07-2.27-2.24-.87-.58.68-1.18,1.45-1.78,2.29C20.36,8,20.91,9.36,22.52,9.42Z"/><path id="Path_89" data-name="Path 89" class="cls-1" d="M43.34,49.8l-.06.22c-.41,1.77.5,2.49,2,1.43.57-.41,1.12-.84,1.66-1.28,1.4-1.18,1.24-2.65-.23-3a3,3,0,0,0-3.35,2.64Z"/><path id="Path_90" data-name="Path 90" class="cls-1" d="M22.13,29.33H16.76a3.47,3.47,0,0,0-3.47,3.3,63.19,63.19,0,0,0,.27,6.74,3.31,3.31,0,0,0,3.67,2.9c1.51-.14,3.14-.25,4.91-.32a3.44,3.44,0,0,0,3.31-3.4V32.64a3.31,3.31,0,0,0-3.31-3.31Z"/><path id="Path_91" data-name="Path 91" class="cls-1" d="M47.54,10.71q-1.62.4-3.63.78a2.51,2.51,0,0,0-2.22,2.76,2.73,2.73,0,0,0,.23.8,49.32,49.32,0,0,1,2.22,7.72A4.12,4.12,0,0,0,48,26h5.88a2.8,2.8,0,0,0,2.93-2.65,2.64,2.64,0,0,0,0-.63,28.63,28.63,0,0,0-4.1-10.3A5,5,0,0,0,47.54,10.71Z"/><path id="Path_92" data-name="Path 92" class="cls-1" d="M9.21,46.93c-1.11.28-1,1.68.37,2.88l.24.21c1.39,1.19,2.32.77,2-.76S10.33,46.65,9.21,46.93Z"/><path id="Path_93" data-name="Path 93" class="cls-1" d="M53.43,42.44a28.62,28.62,0,0,0,3.48-9.82,2.88,2.88,0,0,0-2.45-3.26,2.33,2.33,0,0,0-.53,0H48.36a3.15,3.15,0,0,0-3.15,3.14c0,.05,0,.11,0,.16A64.86,64.86,0,0,1,44.93,40a3.83,3.83,0,0,0,2.84,4l.69.19A4.58,4.58,0,0,0,53.43,42.44Z"/><path id="Path_94" data-name="Path 94" class="cls-1" d="M25.44,53.4V48.48a3.2,3.2,0,0,0-3.15-3.22h-.16c-1.57.07-3,.17-4.36.29a2.92,2.92,0,0,0-2.68,3.13,2.67,2.67,0,0,0,.08.48c.14.64.3,1.28.47,1.93a7,7,0,0,0,4,4.39c.84.27,1.69.5,2.56.7a2.68,2.68,0,0,0,3.2-2A2.76,2.76,0,0,0,25.44,53.4Z"/><path id="Path_95" data-name="Path 95" class="cls-1" d="M38.44,29.33H32.05a3.31,3.31,0,0,0-3.31,3.31v5.91A3.44,3.44,0,0,0,32.05,42c2.16.09,4.14.23,6,.41a3.29,3.29,0,0,0,3.66-2.85v0a62.28,62.28,0,0,0,.25-6.83A3.49,3.49,0,0,0,38.44,29.33Z"/><path id="Path_96" data-name="Path 96" class="cls-1" d="M37.47,45.63c-1.66-.16-3.46-.29-5.42-.37a3.19,3.19,0,0,0-3.31,3.06v5.24a3,3,0,0,0,2.9,3.1,2.68,2.68,0,0,0,.4,0,26.72,26.72,0,0,0,3.31-.6,6.38,6.38,0,0,0,4.07-4.15c.24-.89.45-1.76.64-2.63a2.93,2.93,0,0,0-2.15-3.55A3.73,3.73,0,0,0,37.47,45.63Z"/></g></g></g></g></svg>